<?xml version="1.0" standalone="no"?>
<!DOCTYPE svg PUBLIC "-//W3C//DTD SVG 20010904//EN"
 "http://www.w3.org/TR/2001/REC-SVG-20010904/DTD/svg10.dtd">
<svg version="1.0" xmlns="http://www.w3.org/2000/svg"
 width="240.000000pt" height="381.000000pt" viewBox="0 0 240.000000 381.000000"
 preserveAspectRatio="xMidYMid meet">

<g transform="translate(0.000000,381.000000) scale(0.100000,-0.100000)"
fill="#000000" stroke="none">
<path d="M2 1903 l3 -1908 2 1903 3 1902 1185 0 1185 0 0 -1900 c0 -1260 3
-1900 10 -1900 7 0 10 642 10 1905 l0 1905 -1200 0 -1200 0 2 -1907z"/>
<path d="M230 3634 c0 -8 68 -268 81 -311 9 -27 16 -33 39 -33 29 0 36 13 72
120 3 8 10 -5 17 -30 20 -79 28 -90 59 -90 29 0 29 0 72 163 24 89 43 167 44
172 1 6 -13 11 -31 13 -30 3 -32 1 -46 -50 -45 -159 -44 -155 -50 -128 -4 14
-15 59 -24 100 -16 65 -21 75 -41 78 -45 7 -52 -2 -38 -50 11 -38 10 -50 -8
-103 l-20 -60 -19 65 c-44 155 -39 145 -74 148 -18 2 -33 0 -33 -4z m202 -116
c-8 -8 -9 -4 -5 13 4 13 8 18 11 10 2 -7 -1 -18 -6 -23z m-70 -167 c8 11 9 11
6 1 -4 -16 -22 -18 -25 -2 -1 7 0 6 4 -1 4 -8 8 -7 15 2z"/>
<path d="M804 3627 c-2 -7 -3 -85 -2 -172 l3 -160 33 -3 32 -3 0 75 0 76 40 0
39 0 3 -72 3 -73 33 -3 32 -3 0 176 0 176 -32 -3 -33 -3 -3 -67 -3 -68 -39 0
-40 0 0 70 0 70 -30 0 c-17 0 -33 -6 -36 -13z m33 -229 c-1 -40 -3 -10 -3 67
0 77 1 110 3 73 2 -37 2 -100 0 -140z"/>
<path d="M1225 3627 c-3 -7 -4 -85 -3 -172 l3 -160 90 0 90 0 3 33 3 32 -60 0
-61 0 0 35 c0 35 0 35 45 35 45 0 45 0 45 35 0 35 0 35 -45 35 -45 0 -45 0
-45 35 l0 35 61 0 60 0 -3 33 -3 32 -88 3 c-65 2 -89 -1 -92 -11z m93 -24
l-58 -4 -2 -137 -2 -137 -3 129 c-2 72 -1 136 1 143 4 9 23 12 63 11 l58 -2
-57 -3z"/>
<path d="M1600 3465 l0 -175 90 0 90 0 0 35 0 35 -55 0 -55 0 0 34 c0 34 1 35
43 38 39 3 42 5 45 36 3 32 3 32 -42 32 -46 0 -46 0 -46 35 l0 35 55 0 55 0 0
35 0 35 -90 0 -90 0 0 -175z m123 138 c-18 -2 -48 -2 -65 0 -18 2 -4 4 32 4
36 0 50 -2 33 -4z"/>
<path d="M1974 3627 c-2 -7 -3 -85 -2 -172 l3 -160 90 0 90 0 3 33 3 32 -60 0
-61 0 0 140 0 140 -30 0 c-17 0 -33 -6 -36 -13z"/>
<path d="M350 3165 c-17 -21 -44 44 392 -942 l121 -273 -318 -697 c-240 -527
-315 -701 -308 -712 9 -14 46 -16 255 -19 189 -2 248 1 256 10 5 7 59 119 120
248 60 129 133 285 162 345 28 61 77 164 107 230 30 66 57 121 58 123 3 3 19
-30 111 -225 24 -51 65 -137 90 -190 57 -121 186 -397 225 -480 l29 -63 244 0
c206 0 245 2 256 15 13 16 12 19 -465 1059 -85 187 -155 347 -155 357 0 10
117 281 261 603 219 494 258 589 249 606 -10 19 -20 20 -259 20 l-248 0 -93
-202 c-51 -112 -106 -232 -123 -268 -89 -194 -118 -253 -121 -249 -5 4 -48
100 -206 449 -56 124 -108 235 -116 248 -14 22 -16 22 -263 22 -212 0 -250 -2
-261 -15z m394 -270 c18 -33 117 -225 220 -427 247 -486 228 -451 242 -436 6
7 112 211 234 453 214 423 243 475 262 475 24 0 -6 -72 -142 -340 -83 -162
-192 -377 -242 -477 l-92 -181 94 -184 c508 -987 517 -1005 502 -1020 -10 -10
-15 -9 -26 2 -7 8 -100 184 -206 390 -337 657 -373 725 -385 738 -12 14 -41
-39 -451 -833 -134 -260 -158 -300 -174 -300 -27 0 -21 35 18 107 22 40 95
181 163 313 67 132 163 317 211 410 49 94 112 216 141 273 l52 102 -67 133
c-37 72 -100 195 -141 272 -40 77 -111 212 -157 300 -46 88 -96 184 -112 214
-22 42 -26 57 -16 68 19 24 38 10 72 -52z"/>
<path d="M430 235 l0 -75 34 0 c47 0 60 19 51 77 -9 59 -19 73 -56 73 l-29 0
0 -75z m50 35 c0 -5 -4 -10 -10 -10 -5 0 -10 5 -10 10 0 6 5 10 10 10 6 0 10
-4 10 -10z m5 -60 c0 -7 -6 -15 -12 -17 -8 -3 -13 4 -13 17 0 13 5 20 13 18 6
-3 12 -11 12 -18z"/>
<path d="M650 235 l0 -75 40 0 c29 0 40 4 40 15 0 9 -9 15 -25 15 -16 0 -25 6
-25 15 0 8 9 15 20 15 11 0 20 7 20 15 0 8 -9 15 -20 15 -11 0 -20 7 -20 15 0
9 9 15 25 15 16 0 25 6 25 15 0 11 -11 15 -40 15 l-40 0 0 -75z"/>
<path d="M866 294 c-9 -8 -16 -21 -16 -28 0 -16 32 -46 48 -46 7 0 12 -7 12
-15 0 -17 -16 -20 -26 -4 -10 16 -28 -6 -21 -25 8 -20 60 -21 77 -1 18 21 5
60 -25 73 -14 6 -25 16 -25 22 0 13 13 13 27 -1 16 -16 28 8 13 26 -16 19 -45
19 -64 -1z"/>
<path d="M1070 295 c0 -8 7 -15 15 -15 12 0 15 -13 15 -60 0 -47 3 -60 15 -60
12 0 15 13 15 60 0 47 3 60 15 60 8 0 15 7 15 15 0 11 -12 15 -45 15 -33 0
-45 -4 -45 -15z"/>
<path d="M1491 266 c-39 -56 -39 -66 -1 -66 23 0 30 -4 30 -20 0 -11 7 -20 15
-20 8 0 15 9 15 19 0 11 6 21 13 24 9 3 9 7 0 18 -6 8 -13 29 -15 48 -4 49
-22 48 -57 -3z m29 -26 c0 -5 -5 -10 -11 -10 -5 0 -7 5 -4 10 3 6 8 10 11 10
2 0 4 -4 4 -10z"/>
<path d="M1870 247 c0 -69 10 -87 50 -87 40 0 50 18 50 87 0 48 -3 63 -15 63
-10 0 -15 -15 -17 -57 -2 -44 -7 -58 -18 -58 -11 0 -16 14 -18 58 -2 42 -7 57
-17 57 -12 0 -15 -15 -15 -63z"/>
</g>
</svg>
