<svg xmlns="http://www.w3.org/2000/svg" width="234" height="216" viewBox="0 0 234 216">
<g>
<path d="M 113.00 170.62 C113.00,165.99 113.30,165.16 115.10,164.69 C118.11,163.90 119.93,164.87 120.62,167.62 C121.33,170.44 119.55,173.00 116.88,173.00 C115.84,173.00 115.00,173.68 115.00,174.50 C115.00,175.32 114.55,176.00 114.00,176.00 C113.45,176.00 113.00,173.58 113.00,170.62 ZM 118.82 168.67 C119.07,166.54 118.72,166.00 117.07,166.00 C115.57,166.00 115.00,166.64 115.00,168.33 C115.00,172.87 118.28,173.17 118.82,168.67 ZM 88.18 167.00 C88.06,159.91 88.24,159.92 93.20,167.05 L 94.90 169.50 L 94.95 165.81 C94.98,163.78 95.45,161.84 96.00,161.50 C96.62,161.11 97.00,163.16 97.00,166.94 C97.00,170.27 96.56,173.00 96.01,173.00 C95.47,173.00 93.78,171.09 92.27,168.75 L 89.51 164.50 L 88.90 169.00 C88.35,173.16 88.29,173.02 88.18,167.00 ZM 100.20 171.80 C96.81,168.41 100.80,162.75 105.00,165.00 C108.53,166.89 107.00,173.00 103.00,173.00 C102.12,173.00 100.86,172.46 100.20,171.80 ZM 104.82 168.67 C105.07,166.54 104.72,166.00 103.07,166.00 C101.57,166.00 101.00,166.64 101.00,168.33 C101.00,172.87 104.28,173.17 104.82,168.67 ZM 122.00 167.50 C122.00,164.48 122.45,162.00 123.00,162.00 C123.55,162.00 124.00,162.72 124.00,163.61 C124.00,164.61 124.55,165.00 125.47,164.65 C128.59,163.45 131.86,170.73 129.00,172.50 C128.40,172.87 128.00,171.65 128.00,169.49 C128.00,166.57 127.66,165.92 126.25,166.18 C125.10,166.40 124.39,167.62 124.19,169.76 C123.67,175.13 122.00,173.40 122.00,167.50 ZM 132.05 171.56 C131.33,170.70 131.04,168.98 131.38,167.62 C132.72,162.30 139.34,163.81 138.81,169.32 C138.56,171.90 138.01,172.56 135.91,172.80 C134.48,172.97 132.76,172.41 132.05,171.56 ZM 136.99 170.51 C138.64,168.52 137.55,166.00 135.03,166.00 C133.57,166.00 133.00,166.65 133.00,168.33 C133.00,172.10 134.84,173.11 136.99,170.51 ZM 141.56 172.09 C140.73,170.76 140.56,163.11 141.34,162.33 C142.55,161.12 143.12,162.74 143.31,167.90 C143.49,172.68 142.86,174.19 141.56,172.09 ZM 146.20 171.80 C142.81,168.41 146.80,162.75 151.00,165.00 C154.53,166.89 153.00,173.00 149.00,173.00 C148.12,173.00 146.86,172.46 146.20,171.80 ZM 150.82 168.67 C151.07,166.54 150.72,166.00 149.07,166.00 C147.57,166.00 147.00,166.64 147.00,168.33 C147.00,172.87 150.28,173.17 150.82,168.67 ZM 166.63 159.09 L 155.39 148.00 L 106.45 148.00 C59.66,147.99 57.36,147.91 54.30,146.04 C48.10,142.26 48.00,141.59 48.00,104.80 C48.01,73.56 48.13,71.30 49.96,68.30 C53.20,62.98 56.61,61.57 67.48,61.05 C68.02,61.02 63.41,55.93 57.23,49.73 C51.06,43.54 46.00,37.74 46.00,36.84 C46.00,30.86 49.54,34.07 115.71,100.21 C153.74,138.22 181.92,167.14 181.76,167.99 C181.02,171.91 177.58,169.89 166.63,159.09 ZM 145.10 137.60 L 139.77 132.20 L 134.89 134.65 C115.65,144.31 90.22,135.34 80.88,115.58 C75.17,103.51 74.94,92.62 80.13,80.13 L 82.31 74.90 L 78.45 70.95 C74.62,67.02 74.55,67.00 66.85,67.00 C60.11,67.00 58.75,67.31 56.31,69.41 L 53.50 71.82 L 53.24 103.66 C52.97,137.84 53.14,139.25 58.02,141.72 C59.90,142.67 71.41,142.97 105.47,142.99 L 150.43 143.00 L 145.10 137.60 ZM 129.53 130.92 C136.22,128.85 136.26,128.82 134.33,126.89 C132.46,125.02 132.23,125.01 128.44,126.64 C122.02,129.42 111.60,129.02 104.90,125.74 C93.29,120.06 86.52,109.62 86.60,97.54 C86.63,93.22 87.31,88.98 88.35,86.56 C89.83,83.15 89.86,82.44 88.62,81.19 C86.56,79.13 85.52,80.22 83.52,86.57 C79.70,98.72 83.30,113.35 92.32,122.38 C102.27,132.32 115.30,135.31 129.53,130.92 ZM 127.05 121.35 C127.60,120.80 121.19,113.67 111.03,103.53 L 94.10 86.62 L 93.05 89.37 C92.47,90.89 92.00,94.71 92.00,97.87 C92.00,108.18 98.91,117.95 108.83,121.66 C112.80,123.15 125.47,122.93 127.05,121.35 ZM 171.70 146.66 C170.94,144.67 172.17,143.25 175.36,142.45 C176.96,142.04 179.02,140.39 180.11,138.62 C181.92,135.69 182.02,133.60 181.77,103.66 L 181.50 71.82 L 178.69 69.41 C176.23,67.30 174.90,67.00 167.85,67.00 C157.41,67.00 155.42,65.77 149.44,55.59 C141.94,42.81 145.11,44.00 118.60,44.02 C105.89,44.02 95.02,44.36 94.42,44.77 C93.83,45.17 91.45,48.31 89.14,51.75 C86.37,55.86 84.25,58.00 82.96,58.00 C79.91,58.00 80.56,55.09 85.25,47.69 C91.39,38.00 91.41,38.00 118.75,38.00 C146.25,38.00 145.35,37.65 153.35,51.50 L 158.55 60.50 L 167.64 61.08 C178.19,61.75 182.57,63.72 185.25,69.03 C186.81,72.12 187.00,76.04 187.00,104.85 C187.00,140.78 186.79,142.11 180.53,145.98 C176.79,148.29 172.45,148.63 171.70,146.66 ZM 147.57 120.11 C147.26,119.61 148.14,116.75 149.51,113.75 C153.06,106.01 154.25,98.59 153.01,92.03 C150.70,79.86 143.45,70.11 133.00,65.12 C128.20,62.83 126.23,62.50 117.50,62.50 C108.56,62.50 106.89,62.80 101.76,65.32 C95.84,68.22 94.00,68.17 94.00,65.10 C94.00,64.00 95.81,62.35 98.75,60.78 C116.88,51.09 140.00,57.06 152.02,74.53 C159.86,85.92 161.11,101.77 155.17,114.46 C152.90,119.30 151.59,121.00 150.11,121.00 C149.02,121.00 147.87,120.60 147.57,120.11 ZM 140.43 112.69 C140.13,111.89 140.62,109.49 141.53,107.37 C142.44,105.23 143.20,100.78 143.22,97.43 C143.32,78.97 125.78,67.23 107.75,73.69 C104.00,75.04 102.74,75.14 101.77,74.17 C98.09,70.49 108.65,65.75 119.21,66.35 C130.89,67.01 140.43,73.33 146.18,84.20 C149.30,90.10 149.47,103.56 146.50,109.50 C144.43,113.64 141.41,115.23 140.43,112.69 ZM 164.00 84.00 C161.30,81.30 161.44,76.87 164.31,74.17 C169.11,69.67 176.00,72.77 176.00,79.44 C176.00,85.42 168.33,88.33 164.00,84.00 ZM 171.43 81.43 C172.29,80.56 173.00,79.47 173.00,79.00 C173.00,77.96 170.14,75.00 169.13,75.00 C167.84,75.00 166.00,77.35 166.00,79.00 C166.00,80.65 167.84,83.00 169.13,83.00 C169.53,83.00 170.56,82.29 171.43,81.43 Z" fill="rgba(0,0,0,1)"/>
</g>
</svg>